<svg aria-hidden="true" style="position:absolute;width:0;height:0" xmlns="http://www.w3.org/2000/svg" overflow="hidden">
  <defs>
    <symbol id="icon-logo_small" viewBox="0 0 32 32">
      <path fill="var(--color1, #85aa9f)" d="M32 16c0 8.837-7.163 16-16 16S0 24.837 0 16 7.163 0 16 0s16 7.163 16 16z"/>
      <path fill="var(--color2, #fcfcfc)" d="M15.956 14.815c4.696-3.542 4.904-5.689 0-9.482-4.997 3.873-4.353 5.927 0 9.482zm-1.141 1.23c-3.542-4.696-5.689-4.904-9.482 0 3.873 4.997 5.927 4.353 9.482 0zm11.851 0c-3.542-4.696-5.689-4.904-9.482 0 3.873 4.997 5.927 4.353 9.482 0zm-10.71 10.621c4.696-3.542 4.904-5.689 0-9.482-4.997 3.873-4.353 5.927 0 9.482z"/>
    </symbol>
    <symbol id="icon-logo_large" viewBox="0 0 32 32">
      <path fill="var(--color1, #85aa9f)" d="M32 16c0 8.837-7.163 16-16 16S0 24.837 0 16 7.163 0 16 0s16 7.163 16 16z"/>
      <path fill="var(--color2, #fcfcfc)" d="M15.956 14.815c4.696-3.542 4.904-5.689 0-9.482-4.997 3.873-4.353 5.927 0 9.482zm-1.141 1.23c-3.542-4.696-5.689-4.904-9.482 0 3.873 4.997 5.927 4.353 9.482 0zm11.851 0c-3.542-4.696-5.689-4.904-9.482 0 3.873 4.997 5.927 4.353 9.482 0zm-10.71 10.621c4.696-3.542 4.904-5.689 0-9.482-4.997 3.873-4.353 5.927 0 9.482z"/>
    </symbol>
    <symbol id="icon-plus" viewBox="0 0 32 32">
      <path fill="none" stroke="var(--color1, #85aa9f)" stroke-linejoin="round" stroke-linecap="round" stroke-width="2.4" d="M16 6.667v18.667M6.667 16h18.667"/>
    </symbol>
    <symbol id="icon-switch-horizontal" viewBox="0 0 32 32">
      <path fill="none" stroke="var(--color1, #85aa9f)" stroke-linejoin="round" stroke-linecap="round" stroke-width="2" d="M26.667 22.667H5.334m-.001 0 5.333-5.333m-5.333 5.333L10.666 28M5.333 9.333h21.333m.001 0L21.334 4m5.333 5.333-5.333 5.333"/>
    </symbol>
    <symbol id="icon-delete" viewBox="0 0 32 32">
      <path stroke-linejoin="round" stroke-linecap="round" stroke-width="2.88" d="M12 4h8m-6.667 10v6.667M18.667 14v6.667M4 8h24m-2.667 0-.935 14.026c-.14 2.104-.21 3.156-.665 3.954a4.007 4.007 0 0 1-1.731 1.62c-.826.4-1.881.4-3.99.4h-4.025c-2.109 0-3.163 0-3.99-.4a3.996 3.996 0 0 1-1.731-1.62c-.455-.798-.525-1.85-.665-3.954L6.666 8"/>
    </symbol>
    <symbol id="icon-edit" viewBox="0 0 32 32">
      <path stroke-linejoin="round" stroke-linecap="round" stroke-width="2.88" d="M3.835 24.154c.061-.551.092-.827.175-1.085a2.68 2.68 0 0 1 .311-.647c.149-.226.345-.422.737-.814L22.666 4a3.77 3.77 0 1 1 5.333 5.333L10.391 26.941c-.392.392-.588.588-.814.737a2.68 2.68 0 0 1-.647.311c-.258.084-.533.114-1.085.175l-4.513.501.501-4.512z"/>
    </symbol>
    <symbol id="icon-united_kingdom" viewBox="0 0 32 32">
      <path fill="var(--color3, #f0f0f0)" d="M16 32c8.837 0 16-7.163 16-16S24.837 0 16 0 0 7.163 0 16s7.163 16 16 16z"/>
      <path fill="var(--color4, #0052b4)" d="M3.308 6.259a15.942 15.942 0 0 0-2.756 5.567h8.324L3.309 6.259zm28.141 5.567a15.959 15.959 0 0 0-2.756-5.567l-5.567 5.567h8.323zM.551 20.174a15.959 15.959 0 0 0 2.756 5.567l5.567-5.567H.551zm25.19-16.866A15.942 15.942 0 0 0 20.174.552v8.324l5.567-5.567zM6.259 28.692a15.942 15.942 0 0 0 5.567 2.756v-8.323l-5.567 5.567zM11.826.551a15.959 15.959 0 0 0-5.567 2.756l5.567 5.567V.551zm8.348 30.898a15.959 15.959 0 0 0 5.567-2.756l-5.567-5.567v8.323zm2.951-11.275 5.567 5.567a15.942 15.942 0 0 0 2.756-5.567h-8.323z"/>
      <path fill="var(--color5, #d80027)" d="M31.865 13.913H18.087V.135a16.15 16.15 0 0 0-4.174 0v13.778H.135a16.15 16.15 0 0 0 0 4.174h13.778v13.778a16.15 16.15 0 0 0 4.174 0V18.087h13.778a16.15 16.15 0 0 0 0-4.174z"/>
      <path fill="var(--color5, #d80027)" d="m20.174 20.174 7.14 7.14c.328-.328.642-.672.941-1.027l-6.113-6.113h-1.968zm-8.348 0-7.14 7.14c.328.328.671.642 1.027.941l6.113-6.113v-1.967zm0-8.348-7.14-7.14c-.328.328-.642.671-.941 1.027l6.113 6.113h1.968zm8.348 0 7.14-7.14a15.753 15.753 0 0 0-1.027-.94l-6.113 6.113v1.968z"/>
    </symbol>
    <symbol id="icon-ukraine" viewBox="0 0 32 32">
      <path fill="var(--color6, #ffda44)" d="M16 32c8.837 0 16-7.163 16-16S24.837 0 16 0 0 7.163 0 16s7.163 16 16 16z"/>
      <path fill="var(--color7, #338af3)" d="M0 16C0 7.164 7.163 0 16 0s16 7.163 16 16z"/>
    </symbol>
    <symbol id="icon-redio_btn" viewBox="0 0 32 32">
      <path stroke-width="2.667" d="M16 4c6.627 0 12 5.373 12 12s-5.373 12-12 12S4 22.627 4 16 9.373 4 16 4z"/>
    </symbol>
    <symbol id="icon-redio_btn_check" viewBox="0 0 32 32">
      <path fill="none" stroke="var(--color1, #85aa9f)" stroke-width="2.667" d="M16 4c6.627 0 12 5.373 12 12s-5.373 12-12 12S4 22.627 4 16 9.373 4 16 4z"/>
      <path fill="var(--color1, #85aa9f)" d="M16 9.333a6.667 6.667 0 1 1 0 13.334 6.667 6.667 0 0 1 0-13.334z"/>
    </symbol>
    <symbol id="icon-eye" viewBox="0 0 32 32">
      <path stroke-linejoin="round" stroke-linecap="round" stroke-width="3.2" d="M1.333 16S6.666 5.333 16 5.333 30.667 16 30.667 16 25.334 26.667 16 26.667C6.667 26.667 1.333 16 1.333 16z"/>
      <path stroke-linejoin="round" stroke-linecap="round" stroke-width="3.2" d="M16 20a4 4 0 1 0 0-8 4 4 0 0 0 0 8z"/>
    </symbol>
    <symbol id="icon-eye-off" viewBox="0 0 32 32">
      <path stroke-linejoin="round" stroke-linecap="round" stroke-width="3.2" d="M23.92 23.92A13.429 13.429 0 0 1 16 26.667C6.667 26.667 1.333 16 1.333 16A24.605 24.605 0 0 1 8.08 8.08m5.12-2.427a12.161 12.161 0 0 1 2.8-.32C25.333 5.333 30.667 16 30.667 16a24.646 24.646 0 0 1-2.88 4.253m-8.96-1.426a4.01 4.01 0 0 1-2.855 1.273 3.996 3.996 0 0 1-3.779-2.501 3.995 3.995 0 0 1 .056-3.127c.219-.491.534-.932.927-1.298M1.333 1.333l29.333 29.333"/>
    </symbol>
  </defs>
</svg>
